<svg xmlns="http://www.w3.org/2000/svg" viewBox="0 0 128 128">
  <path fill="#2496ED" d="M64 0C28.7 0 0 28.7 0 64s28.7 64 64 64 64-28.7 64-64S99.3 0 64 0z"/>
  <path fill="#fff" d="M64 12.5c28.456 0 51.5 23.044 51.5 51.5S92.456 115.5 64 115.5 12.5 92.456 12.5 64 35.544 12.5 64 12.5z"/>
  <path fill="#2496ED" d="M112 50.4c0-6.8-5.5-12.3-12.3-12.3H28.3C21.5 38.1 16 43.6 16 50.4v27.2c0 6.8 5.5 12.3 12.3 12.3h71.4c6.8 0 12.3-5.5 12.3-12.3V50.4zM43.2 73.6c-4.2 0-7.6-3.4-7.6-7.6s3.4-7.6 7.6-7.6 7.6 3.4 7.6 7.6-3.4 7.6-7.6 7.6zm41.6 0c-4.2 0-7.6-3.4-7.6-7.6s3.4-7.6 7.6-7.6 7.6 3.4 7.6 7.6-3.4 7.6-7.6 7.6z"/>
</svg>
