<svg xmlns="http://www.w3.org/2000/svg" viewBox="0 0 128 128">
  <path fill="#F1502F" d="M64 0C28.7 0 0 28.7 0 64s28.7 64 64 64 64-28.7 64-64S99.3 0 64 0z"/>
  <path fill="#fff" d="M64 12.5c28.456 0 51.5 23.044 51.5 51.5S92.456 115.5 64 115.5 12.5 92.456 12.5 64 35.544 12.5 64 12.5z"/>
  <path fill="#F1502F" d="M87.4 39.8c-1.6-4.8-6.4-8.3-11.8-8.3H52.4c-5.4 0-10.2 3.5-11.8 8.3L30.5 88.2c-.8 2.4.8 4.8 3.3 4.8h60.4c2.5 0 4.1-2.4 3.3-4.8L87.4 39.8zM64 76.5c-6.9 0-12.5-5.6-12.5-12.5S57.1 51.5 64 51.5 76.5 57.1 76.5 64 70.9 76.5 64 76.5z"/>
</svg>
