<svg xmlns="http://www.w3.org/2000/svg" viewBox="0 0 128 128">
  <path fill="#ED8B00" d="M64 0C28.7 0 0 28.7 0 64s28.7 64 64 64 64-28.7 64-64S99.3 0 64 0z"/>
  <path fill="#fff" d="M64 12.5c28.456 0 51.5 23.044 51.5 51.5S92.456 115.5 64 115.5 12.5 92.456 12.5 64 35.544 12.5 64 12.5z"/>
  <path fill="#ED8B00" d="M91.2 51.2H75.6c-3.1 0-5.6 2.5-5.6 5.6V70c0 3.1 2.5 5.6 5.6 5.6h15.6c3.1 0 5.6-2.5 5.6-5.6V56.8c0-3.1-2.5-5.6-5.6-5.6zM36.8 70V56.8c0-3.1 2.5-5.6 5.6-5.6H58c3.1 0 5.6 2.5 5.6 5.6V70c0 3.1-2.5 5.6-5.6 5.6H42.4c-3.1 0-5.6-2.5-5.6-5.6z"/>
  <path fill="#5382A1" d="M75.6 51.2v8.4H58V70h15.6c3.1 0 5.6-2.5 5.6-5.6V51.2h-3.6z"/>
</svg>
