<svg xmlns="http://www.w3.org/2000/svg" viewBox="0 0 128 128">
  <path fill="#1976D2" d="M64 0C28.7 0 0 28.7 0 64s28.7 64 64 64 64-28.7 64-64S99.3 0 64 0z"/>
  <path fill="#fff" d="M64 12.5c28.456 0 51.5 23.044 51.5 51.5S92.456 115.5 64 115.5 12.5 92.456 12.5 64 35.544 12.5 64 12.5z"/>
  <path fill="#1976D2" d="M86.4 51.2c3.3 0 6 2.7 6 6v13.6c0 3.3-2.7 6-6 6H41.6c-3.3 0-6-2.7-6-6V57.2c0-3.3 2.7-6 6-6h44.8zM64 92.8c-2.2 0-4-1.8-4-4s1.8-4 4-4 4 1.8 4 4-1.8 4-4 4zm0-12.8c-2.2 0-4-1.8-4-4s1.8-4 4-4 4 1.8 4 4-1.8 4-4 4zm-16-16c-2.2 0-4-1.8-4-4s1.8-4 4-4 4 1.8 4 4-1.8 4-4 4zm32 0c-2.2 0-4-1.8-4-4s1.8-4 4-4 4 1.8 4 4-1.8 4-4 4z"/>
</svg>
