<svg xmlns="http://www.w3.org/2000/svg" viewBox="0 0 128 128">
  <path fill="#47A248" d="M64 0c35.346 0 64 28.654 64 64s-28.654 64-64 64S0 99.346 0 64 28.654 0 64 0z"/>
  <path fill="#fff" d="M64 12.5c28.456 0 51.5 23.044 51.5 51.5S92.456 115.5 64 115.5 12.5 92.456 12.5 64 35.544 12.5 64 12.5z"/>
  <path fill="#47A248" d="M64 25.5c21.23 0 38.5 17.27 38.5 38.5S85.23 102.5 64 102.5 25.5 85.23 25.5 64 42.77 25.5 64 25.5z"/>
  <path fill="#fff" d="M93.2 80.1c-1.1-2.4-3.3-3.9-5.9-3.9H88c-2.6 0-4.8 1.5-5.9 3.9L76.8 92l-5.3-11.9c-1.1-2.4-3.3-3.9-5.9-3.9h-.8c-2.6 0-4.8 1.5-5.9 3.9L53.6 92l-5.3-11.9c-1.1-2.4-3.3-3.9-5.9-3.9h-.8c-2.6 0-4.8 1.5-5.9 3.9L30.4 92l-5.3-11.9c-1.1-2.4-3.3-3.9-5.9-3.9h-.8c-2.6 0-4.8 1.5-5.9 3.9L7.2 92c-.6 1.3-.2 2.8.8 3.7 1 .9 2.5 1 3.6.1l4.9-3.9 5.3 11.9c1.1 2.4 3.3 3.9 5.9 3.9h.8c2.6 0 4.8-1.5 5.9-3.9l5.3-11.9 5.3 11.9c1.1 2.4 3.3 3.9 5.9 3.9h.8c2.6 0 4.8-1.5 5.9-3.9l5.3-11.9 5.3 11.9c1.1 2.4 3.3 3.9 5.9 3.9h.8c2.6 0 4.8-1.5 5.9-3.9l5.3-11.9 4.9 3.9c1.1.9 2.6.8 3.6-.1 1-.9 1.4-2.4.8-3.7l-5.3-11.9z"/>
</svg>
