<svg xmlns="http://www.w3.org/2000/svg" viewBox="0 0 128 128">
  <path fill="#E10098" d="M64 0C28.7 0 0 28.7 0 64s28.7 64 64 64 64-28.7 64-64S99.3 0 64 0z"/>
  <path fill="#fff" d="M64 11.2c29.1 0 52.8 23.7 52.8 52.8S93.1 116.8 64 116.8 11.2 93.1 11.2 64 34.9 11.2 64 11.2z"/>
  <path fill="#E10098" d="M64 16.7c26.1 0 47.3 21.2 47.3 47.3S90.1 111.3 64 111.3 16.7 90.1 16.7 64 37.9 16.7 64 16.7zM64 55.5c4.7 0 8.5 3.8 8.5 8.5s-3.8 8.5-8.5 8.5-8.5-3.8-8.5-8.5 3.8-8.5 8.5-8.5z"/>
  <path fill="#E10098" d="M24.4 77.8c2.4-4.1 7.7-5.5 11.8-3.1l33.3 19.2c4.1 2.4 5.5 7.7 3.1 11.8-2.4 4.1-7.7 5.5-11.8 3.1L27.5 89.6c-4.1-2.4-5.5-7.7-3.1-11.8zm79.2-55.6c2.4 4.1 1 9.4-3.1 11.8L67.2 53.2c-4.1 2.4-9.4 1-11.8-3.1-2.4-4.1-1-9.4 3.1-11.8l33.3-19.2c4.1-2.4 9.4-1 11.8 3.1zM24.4 50.2c-2.4 4.1-1 9.4 3.1 11.8l33.3 19.2c4.1 2.4 9.4 1 11.8-3.1 2.4-4.1 1-9.4-3.1-11.8L36.2 47.1c-4.1-2.4-9.4-1-11.8 3.1zm79.2 55.6c-2.4-4.1-7.7-5.5-11.8-3.1L58.5 122c-4.1 2.4-5.5 7.7-3.1 11.8 2.4 4.1 7.7 5.5 11.8 3.1l33.3-19.2c4.1-2.4 5.5-7.7 3.1-11.8z"/>
</svg>
