<svg xmlns="http://www.w3.org/2000/svg" viewBox="0 0 128 128">
  <path fill="#83CD29" d="M112.678 30.334L68.535 4.729c-2.781-1.584-6.424-1.584-9.227 0L14.82 30.334C11.951 31.985 10 35.088 10 38.407v51.142c0 3.319 1.951 6.422 4.82 8.073l44.143 25.605c2.803 1.584 6.446 1.584 9.227 0l44.143-25.605c2.869-1.651 4.82-4.754 4.82-8.073V38.407c0-3.319-1.951-6.422-4.475-8.073z"/>
  <path fill="#404137" d="M116.75 30.357L72.607 4.751c-2.781-1.584-6.424-1.584-9.227 0L18.893 30.357C16.024 32.008 14.073 35.111 14.073 38.43v51.142c0 3.319 1.951 6.422 4.82 8.073l44.143 25.605c2.803 1.584 6.446 1.584 9.227 0l44.143-25.605c2.869-1.651 4.82-4.754 4.82-8.073V38.43c0-3.319-1.951-6.422-4.476-8.073z"/>
  <path fill="#83CD29" d="M116.75 30.357L72.607 4.751c-2.781-1.584-6.424-1.584-9.227 0L18.893 30.357C16.024 32.008 14.073 35.111 14.073 38.43v51.142c0 3.319 1.951 6.422 4.82 8.073l44.143 25.605c2.803 1.584 6.446 1.584 9.227 0l44.143-25.605c2.869-1.651 4.82-4.754 4.82-8.073V38.43c0-3.319-1.951-6.422-4.476-8.073z"/>
  <path fill="#FFF" d="M80.089 40.893c-2.153-9.405-12.021-13.434-20.656-8.878-5.135 2.713-8.491 6.957-9.506 12.42-1.521 8.203 4.097 15.281 12.59 15.896 5.661.41 10.675-2.411 13.199-6.796l-5.388-3.042c-1.369 2.384-4.24 4.005-7.64 3.724-5.102-.422-8.566-5.35-7.725-10.326.561-3.314 3.219-6.001 6.612-6.69 5.08-.852 9.956 2.463 10.892 7.42l-4.209 1.543 6.83 3.729 5.001-9z"/>
</svg>
