<svg xmlns="http://www.w3.org/2000/svg" viewBox="0 0 128 128">
  <path fill="#336791" d="M64 0c35.346 0 64 28.654 64 64s-28.654 64-64 64S0 99.346 0 64 28.654 0 64 0z"/>
  <path fill="#fff" d="M64 12.5c28.456 0 51.5 23.044 51.5 51.5S92.456 115.5 64 115.5 12.5 92.456 12.5 64 35.544 12.5 64 12.5z"/>
  <path fill="#336791" d="M96.5 64c0 17.949-14.551 32.5-32.5 32.5S31.5 81.949 31.5 64 46.051 31.5 64 31.5 96.5 46.051 96.5 64z"/>
  <path fill="#fff" d="M64 39c13.807 0 25 11.193 25 25s-11.193 25-25 25-25-11.193-25-25 11.193-25 25-25z"/>
  <path fill="#336791" d="M64 46.5c9.665 0 17.5 7.835 17.5 17.5S73.665 81.5 64 81.5 46.5 73.665 46.5 64 54.335 46.5 64 46.5z"/>
</svg>
