<svg xmlns="http://www.w3.org/2000/svg" viewBox="0 0 128 128">
  <path fill="#3776ab" d="M64 0C28.7 0 0 28.7 0 64s28.7 64 64 64 64-28.7 64-64S99.3 0 64 0z"/>
  <path fill="#ffd43b" d="M64 12.5c28.456 0 51.5 23.044 51.5 51.5S92.456 115.5 64 115.5 12.5 92.456 12.5 64 35.544 12.5 64 12.5z"/>
  <path fill="#3776ab" d="M50.8 73.6l16.7-9.6v-4.8L50.8 68.8v4.8zm26.4-15.2L60.5 49.8V45L77.2 53.6v4.8z"/>
  <path fill="#ffd43b" d="M64 49.8v4.8l16.7-9.6V40.2L64 49.8zm0 28.4l-16.7-9.6v-4.8L64 73.4v4.8z"/>
</svg>
