<svg xmlns="http://www.w3.org/2000/svg" viewBox="0 0 128 128">
  <path fill="#0078D4" d="M64 0C28.7 0 0 28.7 0 64s28.7 64 64 64 64-28.7 64-64S99.3 0 64 0z"/>
  <path fill="#fff" d="M64 12.5c28.456 0 51.5 23.044 51.5 51.5S92.456 115.5 64 115.5 12.5 92.456 12.5 64 35.544 12.5 64 12.5z"/>
  <path fill="#0078D4" d="M24.5 47.2v8.1c0 7.8 6.3 14.1 14.1 14.1h50.8c7.8 0 14.1-6.3 14.1-14.1v-8.1c0-7.8-6.3-14.1-14.1-14.1H38.6c-7.8 0-14.1 6.3-14.1 14.1z"/>
  <path fill="#fff" d="M41.8 54.5h44.4v-3.6H41.8v3.6zm22.2-18c5 0 9 4 9 9s-4 9-9 9-9-4-9-9 4-9 9-9z"/>
</svg>
