<svg xmlns="http://www.w3.org/2000/svg" viewBox="0 0 128 128">
  <rect width="128" height="128" rx="6" fill="#3178c6"/>
  <path fill="#fff" fill-rule="evenodd" d="M22.262 27.539v73.922h83.476V27.539H22.262zM98.9 58.79c.024.178.024.356.024.534 0 3.041-1.006 5.717-3.017 8.028-2.012 2.31-4.69 3.465-8.035 3.465-3.346 0-6.024-1.155-8.036-3.465-2.011-2.311-3.017-4.987-3.017-8.028 0-.178 0-.356.024-.534H64.49c-.024.178-.024.356-.024.534 0 6.082 2.084 11.2 6.253 15.354 4.169 4.154 9.287 6.231 15.355 6.231s11.186-2.077 15.355-6.231c4.169-4.154 6.253-9.272 6.253-15.354 0-.178 0-.356-.024-.534H98.9zm-76.636-.001c-.024.178-.024.356-.024.534 0 3.041 1.006 5.717 3.017 8.028 2.012 2.31 4.69 3.465 8.036 3.465 3.345 0 6.023-1.155 8.035-3.465 2.011-2.311 3.017-4.987 3.017-8.028 0-.178 0-.356-.024-.534h12.355c.024.178.024.356.024.534 0 6.082-2.084 11.2-6.253 15.354-4.169 4.154-9.287 6.231-15.355 6.231-6.069 0-11.186-2.077-15.355-6.231C20.169 70.589 18.085 65.471 18.085 59.389c0-.178 0-.356.024-.534L22.264 58.789z"/>
  <path fill="#fff" d="M56.762 41.72v6.956h14.178V41.72H56.762zm8.023 17.404v29.166H56.76V59.124h8.025z"/>
</svg>
